<?xml version="1.0" standalone="no"?>
<!DOCTYPE svg PUBLIC "-//W3C//DTD SVG 20010904//EN"
 "http://www.w3.org/TR/2001/REC-SVG-20010904/DTD/svg10.dtd">
<svg version="1.0" xmlns="http://www.w3.org/2000/svg"
 width="500.000000pt" height="500.000000pt" viewBox="0 0 500.000000 500.000000"
 preserveAspectRatio="xMidYMid meet">
<metadata>
Created by potrace 1.11, written by Peter Selinger 2001-2013
</metadata>
<g transform="translate(0.000000,500.000000) scale(0.100000,-0.100000)"
fill="#000000" stroke="none">
<path d="M4913 4796 c-90 -48 -180 -125 -278 -237 -125 -142 -318 -325 -421
-397 -248 -177 -538 -263 -787 -234 -237 28 -479 121 -781 301 -65 39 -144 80
-175 92 -79 30 -207 36 -290 14 -84 -22 -124 -42 -253 -132 -189 -130 -299
-169 -458 -161 -82 4 -110 11 -205 48 -289 113 -436 149 -695 170 -183 14
-326 41 -458 85 -57 19 -106 35 -108 35 -2 0 -4 -369 -4 -821 l0 -820 43 34
c99 82 205 116 303 98 78 -15 134 -44 224 -115 161 -130 243 -181 358 -221 76
-27 117 -31 127 -15 12 19 142 79 217 100 42 13 118 24 180 27 171 9 279 -18
498 -127 118 -59 277 -125 348 -145 45 -13 154 66 320 232 289 288 448 378
688 390 256 13 409 -48 739 -293 240 -177 524 -355 693 -432 77 -36 221 -82
254 -82 4 0 8 594 8 1320 0 1049 -3 1320 -12 1320 -7 0 -41 -16 -75 -34z"/>
</g>
</svg>
