<?xml version="1.0" encoding="UTF-8"?>
<svg id="Warstwa_1" data-name="Warstwa 1" xmlns="http://www.w3.org/2000/svg" viewBox="0 0 963.88 357.61">
  <defs>
    <style>
      .cls-1 {
        fill: #fc0;
      }

      .cls-1, .cls-2 {
        stroke-width: 0px;
      }

      .cls-2 {
        fill: #d2072a;
      }
    </style>
  </defs>
  <rect class="cls-1" width="963.88" height="357.61"/>
  <polygon class="cls-2" points="0 236.06 130.35 236.06 123.23 245.75 0 245.75 0 236.06"/>
  <polygon class="cls-2" points="0 218.08 143.59 218.08 136.45 227.75 0 227.75 0 218.08"/>
  <polygon class="cls-2" points="0 254.05 117.11 254.05 110.03 263.67 0 263.67 0 254.05"/>
  <polygon class="cls-2" points="963.88 245.75 834.04 245.75 841.16 236.06 963.88 236.06 963.88 245.75"/>
  <polygon class="cls-2" points="963.88 263.67 820.84 263.68 827.92 254.04 963.88 254.04 963.88 263.67"/>
  <polygon class="cls-2" points="854.39 218.08 963.87 218.08 963.87 227.76 847.27 227.77 854.39 218.08"/>
  <g>
    <path class="cls-2" d="M126.25,263.67l61.85-84.04h76.76c8.48,0,8.38,3.22,4.23,8.84-4.21,5.7-11.38,15.51-15.67,21.3-2.17,2.94-6.12,8.31,6.92,8.31h102.83c-8.55,11.71-36.29,45.59-86.1,45.59H126.25Z"/>
    <path class="cls-2" d="M480.49,218.07l-33.54,45.6h-88.48s33.52-45.59,33.56-45.59h88.46Z"/>
    <path class="cls-2" d="M608.45,218.08l-33.56,45.59h-88.45s33.53-45.59,33.56-45.59h88.45Z"/>
    <path class="cls-2" d="M637.22,218.08s-6.46,8.84-9.61,13.08c-11.1,15.02-1.29,32.51,34.97,32.51h142.06l33.56-45.59h-200.98Z"/>
    <path class="cls-2" d="M169.51,127.37l-30.8,41.84h167.84c8.48,0,8.37,3.22,4.22,8.84-4.2,5.7-11.25,15.63-15.54,21.42-2.18,2.93-6.12,8.29,6.92,8.29h68.64s11.06-15.05,20.33-27.64c12.62-17.12,1.1-52.74-44.01-52.74h-177.61Z"/>
  </g>
  <polygon class="cls-2" points="616.04 207.76 399.62 207.76 458.8 127.37 547.27 127.37 513.34 173.46 552.82 173.46 586.76 127.37 675.2 127.37 616.04 207.76"/>
  <path class="cls-2" d="M797.7,127.37l-59.17,80.38h-93.72s59.19-80.38,59.22-80.38h93.68Z"/>
</svg>