<svg version="1.1" id="Layer_1" xmlns="http://www.w3.org/2000/svg" xmlns:xlink="http://www.w3.org/1999/xlink" x="0px" y="0px" viewBox="0 0 975 246.5" style="enable-background:new 0 0 975 246.5;" xml:space="preserve">
 <style type="text/css">
  .st0{fill:#FFFFFF;}
 </style>
 <g>
  <g>
   <path class="st0" d="M868.9,58.4l37.4,84l37.4-84H975c-6.4,14.2-74.2,165.9-74.3,166.1c-8.3,18.7-30.4,27.2-49,18.8l0,0l-9.9-4.4
			l0,0l0,0l11.6-26l4.1,1.8c7.7,3.4,16.8-0.1,20.2-7.8c0-0.1,13-29.3,13-29.3l0,0L837.5,58.4H868.9z M735.4,0v70.1
			c10.6-7.4,23.6-11.8,37.5-11.8c36.2,0,65.6,29.4,65.6,65.6c0,36.2-29.4,65.6-65.6,65.6c-13.9,0-26.9-4.4-37.5-11.8l0,0v11.6h-28.8
			V0H735.4z M569.7,58.3c36.2,0,65.6,29.4,65.6,65.6s-29.4,65.6-65.6,65.6c-36.2,0-65.6-29.4-65.6-65.6S533.5,58.3,569.7,58.3z
			 M269.2,0v189.3h-27.9c-52.1,0-94.6-42.5-94.6-94.6S189.2,0,241.3,0H269.2z M27.9,0c52.1,0,94.6,42.5,94.6,94.6
			s-42.5,94.6-94.6,94.6H0V0H27.9z M394.9,0c52.2,0,94.6,42.5,94.6,94.6c0,52.2-42.5,94.6-94.6,94.6l0,0h-68.4V0H394.9z M682.6,0
			v189.3h-28.7V0H682.6z M772.9,84.1c-17.4,0-32.3,11.3-37.5,27.1c-1.3,3.9-2,8.1-2,12.5c0,4.3,0.7,8.5,2,12.5
			c5.2,15.7,20,27.1,37.5,27.1c21.7,0,39.5-17.6,39.5-39.5C812.5,102,794.6,84.1,772.9,84.1z M569.7,84.1
			c-21.7,0-39.5,17.6-39.5,39.5c0,21.7,17.6,39.5,39.5,39.5c21.7,0,39.5-17.6,39.5-39.5C609.2,101.9,591.4,84.1,569.7,84.1z
			 M394.9,28.7h-39.7v131.9h39.7c36.3,0,65.9-29.6,65.9-65.9S431.2,28.7,394.9,28.7L394.9,28.7z">
   </path>
  </g>
 </g>
</svg>