<svg width="57" height="52" viewBox="0 0 57 52" fill="none" xmlns="http://www.w3.org/2000/svg">
<path d="M49.2159 49.227C48.8885 49.6222 48.4567 49.8024 47.8576 49.8024H46.4783V43.8333H47.8576C48.4567 43.8333 48.8885 44.0136 49.2159 44.4087C49.5503 44.8178 49.606 45.3585 49.606 46.7797C49.606 48.201 49.5503 48.818 49.2159 49.227ZM51.2987 46.7797C51.2987 46.6688 51.2987 46.551 51.2987 46.44C51.3057 45.2407 51.3127 44.1106 50.3932 43.1955C49.8359 42.6409 49.0139 42.3428 48.0248 42.3428H44.7856V51.2999H48.0248C49.0139 51.2999 49.8359 51.0087 50.3932 50.4472C51.3127 49.5321 51.3057 48.3604 51.2987 47.1264C51.2987 47.0155 51.2987 46.8976 51.2987 46.7867" fill="#FAFAFA"/>
<path d="M53.6864 49.8208C53.0587 49.8208 52.7595 49.6007 52.4675 49.3324L51.2998 50.4193C51.9713 51.0454 52.6719 51.2999 53.6864 51.2999C55.2774 51.2999 56.9998 50.3643 56.9998 48.3211V42.3428H55.2263V48.2454C55.2263 49.2498 54.6643 49.8208 53.6864 49.8208Z" fill="#FAFAFA"/>
<path d="M39.0427 51.2999H40.7577V43.8403H43.1574V42.3428H36.6431V43.8403H39.0427V51.2999Z" fill="#FAFAFA"/>
<path d="M30.8699 6.32226C30.6384 6.07433 30.3086 5.9297 29.9719 5.92281C28.3233 5.92281 23.7984 5.90904 22.9285 5.90904C22.5707 5.90904 22.2901 5.84017 21.9884 5.68866C21.5605 5.46827 20.9922 5.07571 20.7046 4.42145C20.6695 4.34569 20.6344 4.25616 20.6064 4.14597C20.6064 4.12531 20.5994 4.11154 20.5923 4.09087C20.5643 3.98068 20.5432 3.87738 20.5362 3.78096C20.5292 3.67077 20.5222 3.56746 20.5292 3.45038C20.5292 3.42284 20.5292 3.39529 20.5292 3.36085C20.5362 3.23 20.5502 3.11292 20.5783 2.99584V2.98207C20.6906 2.43111 20.7747 2.011 20.8449 1.68043C20.9992 0.936631 21.0624 0.668038 21.0904 0.578507L18.8245 0L16.0604 5.05505C15.8429 5.4545 15.878 5.95036 16.1516 6.32226L19.9189 11.3911C20.1434 11.701 20.5152 11.8801 20.901 11.8801H26.4221C26.7869 11.8801 27.1377 12.0316 27.3762 12.2933L29.6983 14.7933C29.9158 15.0274 30.035 15.3304 30.035 15.6472L30.0631 33.2848C30.0631 33.5948 29.9509 33.8978 29.7334 34.1319C29.123 34.8 28.3373 35.6126 27.9164 36.0327C27.4885 36.4666 26.801 36.5424 26.2888 36.2187L24.0088 34.7724C20.8238 32.7545 16.0043 29.7036 14.3697 28.6774C14.1733 28.5535 13.9488 28.4915 13.7173 28.4915H8.32243C7.92255 28.4915 7.55074 28.6843 7.32625 29.008C7.05966 29.3868 6.72292 29.8758 6.25991 30.5507L5.42508 31.7904C5.37597 31.8592 5.33388 31.9212 5.29179 31.9901L5.13745 32.2174C5.06729 32.3207 4.99714 32.424 4.92699 32.5273L4.72354 32.8303C4.68145 32.8854 4.64637 32.9474 4.60428 33.0025L4.07111 33.7945C3.52391 34.6003 3.33449 34.8551 3.25732 34.9377L4.94803 36.198C5.03222 36.1361 5.30582 35.9157 5.67062 35.6195L5.68465 35.6058C6.09154 35.2821 6.61769 34.862 7.13683 34.4556C7.214 34.3936 7.29819 34.3317 7.38237 34.2766C7.45252 34.2284 7.52268 34.1801 7.58582 34.1388L7.60686 34.1251C7.60686 34.1251 7.62089 34.1113 7.62791 34.1113C7.71209 34.0631 7.79628 34.0149 7.88046 33.9735H7.89449C8.36452 33.7325 8.84859 33.6154 9.37474 33.6154C10.3499 33.6154 11.4302 34.0286 12.686 34.862L12.7211 34.8826C17.5898 38.1608 20.8238 40.4473 22.0375 41.3082C22.241 41.4528 22.4865 41.5286 22.7461 41.5286H28.0216C28.3373 41.5286 28.632 41.4115 28.8635 41.198L37.0855 33.4639C37.324 33.2435 37.4573 32.9267 37.4573 32.603V13.9944C37.4573 13.6982 37.3451 13.4228 37.1487 13.2024L30.8839 6.32226H30.8699Z" fill="#FAFAFA"/>
<path d="M3.73408 12.8703C3.73408 12.8703 3.7969 12.8155 3.8318 12.788C3.84575 12.7743 3.85971 12.7675 3.88065 12.7538L3.89461 12.74C3.89461 12.74 3.95743 12.6989 3.99233 12.6783C4.01327 12.6646 4.04118 12.6509 4.0691 12.644C4.104 12.6235 4.1389 12.6098 4.1738 12.596C4.20171 12.5823 4.22963 12.5755 4.25755 12.5618C4.29943 12.5481 4.33433 12.5343 4.3762 12.5275H4.39714C4.39714 12.5275 4.43902 12.5138 4.46694 12.5069C4.50882 12.5001 4.55767 12.4863 4.60653 12.4795H4.63445C4.63445 12.4795 4.67633 12.4658 4.70424 12.4658C4.76008 12.4658 4.81592 12.4521 4.87873 12.4521H4.92061C4.92061 12.4521 4.94853 12.4521 4.96947 12.4452C5.06718 12.4452 5.15792 12.4452 5.25563 12.4452H7.03543C7.85902 12.4452 7.94278 12.5275 7.94278 13.3366V26.0557C7.94278 26.33 8.08237 26.5837 8.31269 26.7346C8.54302 26.8854 8.83616 26.9128 9.08743 26.81L14.1476 24.7461C14.4547 24.6227 14.6571 24.3279 14.6571 23.9987V7.33011C14.6571 6.88442 14.2872 6.51416 13.8336 6.51416H2.63131C2.24743 6.51416 1.91241 6.77471 1.82865 7.14498L0 14.8382L2.47078 15.4279C2.54057 15.2564 2.60339 15.0987 2.65922 14.941L2.94539 14.2211C2.96633 14.1731 2.98727 14.1251 3.0082 14.0771L3.06404 13.9537C3.08498 13.8988 3.1129 13.8508 3.13384 13.796C3.1478 13.7617 3.16873 13.7274 3.18269 13.6931C3.20363 13.6451 3.23155 13.5971 3.25249 13.5491V13.5286C3.25249 13.5286 3.28739 13.4806 3.30135 13.46C3.32927 13.412 3.35718 13.364 3.3851 13.316V13.3023C3.3851 13.3023 3.41302 13.2749 3.42 13.2543C3.46188 13.1857 3.50376 13.1309 3.54563 13.076C3.54563 13.0692 3.55261 13.0623 3.55959 13.0554V13.0417C3.60845 12.9937 3.64335 12.9526 3.67824 12.9183C3.68522 12.9046 3.69918 12.8977 3.71314 12.8909L3.73408 12.8703Z" fill="#FAFAFA"/>
</svg>
